<svg id="visual" viewBox="0 0 1920 1080" width="1920" height="1080" xmlns="http://www.w3.org/2000/svg" xmlns:xlink="http://www.w3.org/1999/xlink" version="1.1"><rect x="0" y="0" width="1920" height="1080" fill="#ffffff"></rect><path d="M0 630L45.7 645.7C91.3 661.3 182.7 692.7 274.2 712.8C365.7 733 457.3 742 548.8 740.7C640.3 739.3 731.7 727.7 823 727.5C914.3 727.3 1005.7 738.7 1097 749.8C1188.3 761 1279.7 772 1371.2 762.8C1462.7 753.7 1554.3 724.3 1645.8 701.2C1737.3 678 1828.7 661 1874.3 652.5L1920 644L1920 1081L1874.3 1081C1828.7 1081 1737.3 1081 1645.8 1081C1554.3 1081 1462.7 1081 1371.2 1081C1279.7 1081 1188.3 1081 1097 1081C1005.7 1081 914.3 1081 823 1081C731.7 1081 640.3 1081 548.8 1081C457.3 1081 365.7 1081 274.2 1081C182.7 1081 91.3 1081 45.7 1081L0 1081Z" fill="#26a69a"></path><path d="M0 744L45.7 748.5C91.3 753 182.7 762 274.2 779C365.7 796 457.3 821 548.8 818C640.3 815 731.7 784 823 781.7C914.3 779.3 1005.7 805.7 1097 801C1188.3 796.3 1279.7 760.7 1371.2 761.7C1462.7 762.7 1554.3 800.3 1645.8 823.5C1737.3 846.7 1828.7 855.3 1874.3 859.7L1920 864L1920 1081L1874.3 1081C1828.7 1081 1737.3 1081 1645.8 1081C1554.3 1081 1462.7 1081 1371.2 1081C1279.7 1081 1188.3 1081 1097 1081C1005.7 1081 914.3 1081 823 1081C731.7 1081 640.3 1081 548.8 1081C457.3 1081 365.7 1081 274.2 1081C182.7 1081 91.3 1081 45.7 1081L0 1081Z" fill="#1f9e92"></path><path d="M0 846L45.7 841.3C91.3 836.7 182.7 827.3 274.2 819.7C365.7 812 457.3 806 548.8 804C640.3 802 731.7 804 823 818C914.3 832 1005.7 858 1097 860C1188.3 862 1279.7 840 1371.2 835.2C1462.7 830.3 1554.3 842.7 1645.8 856.7C1737.3 870.7 1828.7 886.3 1874.3 894.2L1920 902L1920 1081L1874.3 1081C1828.7 1081 1737.3 1081 1645.8 1081C1554.3 1081 1462.7 1081 1371.2 1081C1279.7 1081 1188.3 1081 1097 1081C1005.7 1081 914.3 1081 823 1081C731.7 1081 640.3 1081 548.8 1081C457.3 1081 365.7 1081 274.2 1081C182.7 1081 91.3 1081 45.7 1081L0 1081Z" fill="#17978a"></path><path d="M0 872L45.7 879.7C91.3 887.3 182.7 902.7 274.2 909.8C365.7 917 457.3 916 548.8 910.2C640.3 904.3 731.7 893.7 823 889.7C914.3 885.7 1005.7 888.3 1097 889.2C1188.3 890 1279.7 889 1371.2 900.2C1462.7 911.3 1554.3 934.7 1645.8 940.5C1737.3 946.3 1828.7 934.7 1874.3 928.8L1920 923L1920 1081L1874.3 1081C1828.7 1081 1737.3 1081 1645.8 1081C1554.3 1081 1462.7 1081 1371.2 1081C1279.7 1081 1188.3 1081 1097 1081C1005.7 1081 914.3 1081 823 1081C731.7 1081 640.3 1081 548.8 1081C457.3 1081 365.7 1081 274.2 1081C182.7 1081 91.3 1081 45.7 1081L0 1081Z" fill="#0d9082"></path><path d="M0 997L45.7 1001.7C91.3 1006.3 182.7 1015.7 274.2 1007.3C365.7 999 457.3 973 548.8 965.3C640.3 957.7 731.7 968.3 823 982.5C914.3 996.7 1005.7 1014.3 1097 1011.3C1188.3 1008.3 1279.7 984.7 1371.2 972.2C1462.7 959.7 1554.3 958.3 1645.8 966.8C1737.3 975.3 1828.7 993.7 1874.3 1002.8L1920 1012L1920 1081L1874.3 1081C1828.7 1081 1737.3 1081 1645.8 1081C1554.3 1081 1462.7 1081 1371.2 1081C1279.7 1081 1188.3 1081 1097 1081C1005.7 1081 914.3 1081 823 1081C731.7 1081 640.3 1081 548.8 1081C457.3 1081 365.7 1081 274.2 1081C182.7 1081 91.3 1081 45.7 1081L0 1081Z" fill="#00897b"></path></svg>